<mxfile host="app.diagrams.net" modified="2024-05-16T14:17:04.186Z" agent="Mozilla/5.0 (Macintosh; Intel Mac OS X 10_15_7) AppleWebKit/537.36 (KHTML, like Gecko) Chrome/124.0.0.0 Safari/537.36" etag="PcdRVI_ITpIYNKFIfcoN" version="24.4.0" type="device">
  <diagram id="C5RBs43oDa-KdzZeNtuy" name="Page-1">
    <mxGraphModel dx="3411" dy="2257" grid="1" gridSize="10" guides="1" tooltips="1" connect="1" arrows="1" fold="1" page="1" pageScale="1" pageWidth="827" pageHeight="1169" math="0" shadow="0">
      <root>
        <mxCell id="WIyWlLk6GJQsqaUBKTNV-0" />
        <mxCell id="WIyWlLk6GJQsqaUBKTNV-1" parent="WIyWlLk6GJQsqaUBKTNV-0" />
        <mxCell id="WIyWlLk6GJQsqaUBKTNV-4" value="Да" style="rounded=0;html=1;jettySize=auto;orthogonalLoop=1;fontSize=11;endArrow=block;endFill=0;endSize=8;strokeWidth=1;shadow=0;labelBackgroundColor=none;edgeStyle=orthogonalEdgeStyle;fontColor=default;" parent="WIyWlLk6GJQsqaUBKTNV-1" source="WIyWlLk6GJQsqaUBKTNV-6" edge="1">
          <mxGeometry x="-0.009" y="-20" relative="1" as="geometry">
            <mxPoint x="-20" y="-20" as="offset" />
            <mxPoint x="343.86" y="370" as="targetPoint" />
          </mxGeometry>
        </mxCell>
        <mxCell id="WIyWlLk6GJQsqaUBKTNV-5" value="Нет" style="edgeStyle=orthogonalEdgeStyle;rounded=0;html=1;jettySize=auto;orthogonalLoop=1;fontSize=11;endArrow=block;endFill=0;endSize=8;strokeWidth=1;shadow=0;labelBackgroundColor=none;fontColor=default;" parent="WIyWlLk6GJQsqaUBKTNV-1" source="WIyWlLk6GJQsqaUBKTNV-6" target="WIyWlLk6GJQsqaUBKTNV-7" edge="1">
          <mxGeometry y="10" relative="1" as="geometry">
            <mxPoint as="offset" />
          </mxGeometry>
        </mxCell>
        <mxCell id="WIyWlLk6GJQsqaUBKTNV-6" value="Пользователь уже&lt;div&gt;зарегистрирован?&lt;/div&gt;" style="rhombus;whiteSpace=wrap;html=1;shadow=0;fontFamily=Helvetica;fontSize=12;align=center;strokeWidth=1;spacing=6;spacingTop=-4;labelBackgroundColor=none;" parent="WIyWlLk6GJQsqaUBKTNV-1" vertex="1">
          <mxGeometry x="233.86" y="240" width="220" height="80" as="geometry" />
        </mxCell>
        <mxCell id="WIyWlLk6GJQsqaUBKTNV-7" value="Регистрация пользователя" style="rounded=1;whiteSpace=wrap;html=1;fontSize=12;glass=0;strokeWidth=1;shadow=0;labelBackgroundColor=none;" parent="WIyWlLk6GJQsqaUBKTNV-1" vertex="1">
          <mxGeometry x="513.86" y="260" width="120" height="40" as="geometry" />
        </mxCell>
        <mxCell id="dHyz3pEAr5WjAmG0HOrd-0" value="" style="rounded=0;html=1;jettySize=auto;orthogonalLoop=1;fontSize=11;endArrow=block;endFill=0;endSize=8;strokeWidth=1;shadow=0;labelBackgroundColor=none;edgeStyle=orthogonalEdgeStyle;fontColor=default;" edge="1" parent="WIyWlLk6GJQsqaUBKTNV-1" source="dHyz3pEAr5WjAmG0HOrd-1" target="WIyWlLk6GJQsqaUBKTNV-6">
          <mxGeometry relative="1" as="geometry">
            <mxPoint x="343.86" y="240" as="targetPoint" />
          </mxGeometry>
        </mxCell>
        <mxCell id="dHyz3pEAr5WjAmG0HOrd-1" value="Пользователь скачивает приложение" style="rounded=1;whiteSpace=wrap;html=1;fontSize=12;glass=0;strokeWidth=1;shadow=0;labelBackgroundColor=none;" vertex="1" parent="WIyWlLk6GJQsqaUBKTNV-1">
          <mxGeometry x="283.86" y="120" width="120" height="70" as="geometry" />
        </mxCell>
        <mxCell id="dHyz3pEAr5WjAmG0HOrd-3" value="" style="edgeStyle=orthogonalEdgeStyle;rounded=0;html=1;jettySize=auto;orthogonalLoop=1;fontSize=11;endArrow=block;endFill=0;endSize=8;strokeWidth=1;shadow=0;labelBackgroundColor=none;fontColor=default;" edge="1" parent="WIyWlLk6GJQsqaUBKTNV-1" source="WIyWlLk6GJQsqaUBKTNV-7" target="WIyWlLk6GJQsqaUBKTNV-6">
          <mxGeometry x="0.001" y="10" relative="1" as="geometry">
            <mxPoint as="offset" />
            <mxPoint x="463.86" y="290" as="sourcePoint" />
            <mxPoint x="563.86" y="290" as="targetPoint" />
            <Array as="points">
              <mxPoint x="573.86" y="220" />
              <mxPoint x="343.86" y="220" />
            </Array>
          </mxGeometry>
        </mxCell>
        <mxCell id="dHyz3pEAr5WjAmG0HOrd-9" style="edgeStyle=orthogonalEdgeStyle;rounded=0;orthogonalLoop=1;jettySize=auto;html=1;shadow=0;strokeWidth=1;align=center;verticalAlign=middle;fontFamily=Helvetica;fontSize=11;fontColor=default;labelBackgroundColor=none;endArrow=block;endFill=0;endSize=8;" edge="1" parent="WIyWlLk6GJQsqaUBKTNV-1" source="dHyz3pEAr5WjAmG0HOrd-4" target="dHyz3pEAr5WjAmG0HOrd-6">
          <mxGeometry relative="1" as="geometry" />
        </mxCell>
        <mxCell id="dHyz3pEAr5WjAmG0HOrd-4" value="Вход в аккаунт" style="rounded=1;whiteSpace=wrap;html=1;fontSize=12;glass=0;strokeWidth=1;shadow=0;labelBackgroundColor=none;" vertex="1" parent="WIyWlLk6GJQsqaUBKTNV-1">
          <mxGeometry x="283.86" y="370" width="120" height="40" as="geometry" />
        </mxCell>
        <mxCell id="dHyz3pEAr5WjAmG0HOrd-11" style="edgeStyle=orthogonalEdgeStyle;rounded=0;orthogonalLoop=1;jettySize=auto;html=1;shadow=0;strokeWidth=1;align=center;verticalAlign=middle;fontFamily=Helvetica;fontSize=11;fontColor=default;labelBackgroundColor=none;endArrow=block;endFill=0;endSize=8;" edge="1" parent="WIyWlLk6GJQsqaUBKTNV-1" source="dHyz3pEAr5WjAmG0HOrd-6" target="dHyz3pEAr5WjAmG0HOrd-10">
          <mxGeometry relative="1" as="geometry" />
        </mxCell>
        <mxCell id="dHyz3pEAr5WjAmG0HOrd-6" value="Выбор ресторана" style="rounded=1;whiteSpace=wrap;html=1;fontSize=12;glass=0;strokeWidth=1;shadow=0;labelBackgroundColor=none;" vertex="1" parent="WIyWlLk6GJQsqaUBKTNV-1">
          <mxGeometry x="283.86" y="440" width="120" height="40" as="geometry" />
        </mxCell>
        <mxCell id="dHyz3pEAr5WjAmG0HOrd-14" style="edgeStyle=orthogonalEdgeStyle;rounded=0;orthogonalLoop=1;jettySize=auto;html=1;shadow=0;strokeWidth=1;align=center;verticalAlign=middle;fontFamily=Helvetica;fontSize=11;fontColor=default;labelBackgroundColor=none;endArrow=block;endFill=0;endSize=8;" edge="1" parent="WIyWlLk6GJQsqaUBKTNV-1" source="dHyz3pEAr5WjAmG0HOrd-10" target="dHyz3pEAr5WjAmG0HOrd-13">
          <mxGeometry relative="1" as="geometry" />
        </mxCell>
        <mxCell id="dHyz3pEAr5WjAmG0HOrd-10" value="Добавление блюд в корзину" style="rounded=1;whiteSpace=wrap;html=1;fontSize=12;glass=0;strokeWidth=1;shadow=0;labelBackgroundColor=none;" vertex="1" parent="WIyWlLk6GJQsqaUBKTNV-1">
          <mxGeometry x="248.86" y="520" width="190" height="40" as="geometry" />
        </mxCell>
        <mxCell id="dHyz3pEAr5WjAmG0HOrd-18" style="edgeStyle=orthogonalEdgeStyle;rounded=0;orthogonalLoop=1;jettySize=auto;html=1;entryX=1;entryY=0.5;entryDx=0;entryDy=0;shadow=0;strokeWidth=1;align=center;verticalAlign=middle;fontFamily=Helvetica;fontSize=11;fontColor=default;labelBackgroundColor=none;endArrow=block;endFill=0;endSize=8;exitX=1;exitY=0.5;exitDx=0;exitDy=0;" edge="1" parent="WIyWlLk6GJQsqaUBKTNV-1" source="dHyz3pEAr5WjAmG0HOrd-13" target="dHyz3pEAr5WjAmG0HOrd-10">
          <mxGeometry relative="1" as="geometry" />
        </mxCell>
        <mxCell id="dHyz3pEAr5WjAmG0HOrd-19" value="&amp;nbsp;Нет, хочет что-то ещё" style="edgeLabel;html=1;align=center;verticalAlign=middle;resizable=0;points=[];fontFamily=Helvetica;fontSize=11;labelBackgroundColor=none;" vertex="1" connectable="0" parent="dHyz3pEAr5WjAmG0HOrd-18">
          <mxGeometry x="-0.2028" relative="1" as="geometry">
            <mxPoint x="70" y="-2" as="offset" />
          </mxGeometry>
        </mxCell>
        <mxCell id="dHyz3pEAr5WjAmG0HOrd-22" style="edgeStyle=orthogonalEdgeStyle;rounded=0;orthogonalLoop=1;jettySize=auto;html=1;shadow=0;strokeWidth=1;align=center;verticalAlign=middle;fontFamily=Helvetica;fontSize=11;fontColor=default;labelBackgroundColor=none;endArrow=block;endFill=0;endSize=8;" edge="1" parent="WIyWlLk6GJQsqaUBKTNV-1" source="dHyz3pEAr5WjAmG0HOrd-13" target="dHyz3pEAr5WjAmG0HOrd-21">
          <mxGeometry relative="1" as="geometry" />
        </mxCell>
        <mxCell id="dHyz3pEAr5WjAmG0HOrd-23" value="Да, готов сделать заказ" style="edgeLabel;html=1;align=center;verticalAlign=middle;resizable=0;points=[];fontFamily=Helvetica;fontSize=11;labelBackgroundColor=none;" vertex="1" connectable="0" parent="dHyz3pEAr5WjAmG0HOrd-22">
          <mxGeometry x="-0.2483" relative="1" as="geometry">
            <mxPoint x="80" as="offset" />
          </mxGeometry>
        </mxCell>
        <mxCell id="dHyz3pEAr5WjAmG0HOrd-13" value="Пользователь собрал&lt;div&gt;весь заказ?&lt;/div&gt;" style="rhombus;whiteSpace=wrap;html=1;shadow=0;fontFamily=Helvetica;fontSize=12;align=center;strokeWidth=1;spacing=6;spacingTop=-4;labelBackgroundColor=none;" vertex="1" parent="WIyWlLk6GJQsqaUBKTNV-1">
          <mxGeometry x="233.86" y="590" width="220" height="80" as="geometry" />
        </mxCell>
        <mxCell id="dHyz3pEAr5WjAmG0HOrd-25" style="edgeStyle=orthogonalEdgeStyle;rounded=0;orthogonalLoop=1;jettySize=auto;html=1;shadow=0;strokeWidth=1;align=center;verticalAlign=middle;fontFamily=Helvetica;fontSize=11;fontColor=default;labelBackgroundColor=none;endArrow=block;endFill=0;endSize=8;" edge="1" parent="WIyWlLk6GJQsqaUBKTNV-1" source="dHyz3pEAr5WjAmG0HOrd-21" target="dHyz3pEAr5WjAmG0HOrd-24">
          <mxGeometry relative="1" as="geometry" />
        </mxCell>
        <mxCell id="dHyz3pEAr5WjAmG0HOrd-21" value="Заказ отправляется в ресторан" style="rounded=1;whiteSpace=wrap;html=1;fontSize=12;glass=0;strokeWidth=1;shadow=0;labelBackgroundColor=none;" vertex="1" parent="WIyWlLk6GJQsqaUBKTNV-1">
          <mxGeometry x="231.36" y="720" width="225" height="40" as="geometry" />
        </mxCell>
        <mxCell id="dHyz3pEAr5WjAmG0HOrd-27" style="edgeStyle=orthogonalEdgeStyle;rounded=0;orthogonalLoop=1;jettySize=auto;html=1;shadow=0;strokeWidth=1;align=center;verticalAlign=middle;fontFamily=Helvetica;fontSize=11;fontColor=default;labelBackgroundColor=none;endArrow=block;endFill=0;endSize=8;" edge="1" parent="WIyWlLk6GJQsqaUBKTNV-1" source="dHyz3pEAr5WjAmG0HOrd-24" target="dHyz3pEAr5WjAmG0HOrd-26">
          <mxGeometry relative="1" as="geometry" />
        </mxCell>
        <mxCell id="dHyz3pEAr5WjAmG0HOrd-24" value="&amp;lt; Ресторан выполняет заказ &amp;gt;" style="rounded=1;whiteSpace=wrap;html=1;fontSize=12;glass=0;strokeWidth=1;shadow=0;labelBackgroundColor=none;" vertex="1" parent="WIyWlLk6GJQsqaUBKTNV-1">
          <mxGeometry x="231.36" y="790" width="225" height="40" as="geometry" />
        </mxCell>
        <mxCell id="dHyz3pEAr5WjAmG0HOrd-29" style="edgeStyle=orthogonalEdgeStyle;rounded=0;orthogonalLoop=1;jettySize=auto;html=1;shadow=0;strokeWidth=1;align=center;verticalAlign=middle;fontFamily=Helvetica;fontSize=11;fontColor=default;labelBackgroundColor=none;endArrow=block;endFill=0;endSize=8;" edge="1" parent="WIyWlLk6GJQsqaUBKTNV-1" source="dHyz3pEAr5WjAmG0HOrd-26" target="dHyz3pEAr5WjAmG0HOrd-28">
          <mxGeometry relative="1" as="geometry" />
        </mxCell>
        <mxCell id="dHyz3pEAr5WjAmG0HOrd-26" value="&amp;lt; Курьер отвозит заказ &amp;gt;" style="rounded=1;whiteSpace=wrap;html=1;fontSize=12;glass=0;strokeWidth=1;shadow=0;labelBackgroundColor=none;" vertex="1" parent="WIyWlLk6GJQsqaUBKTNV-1">
          <mxGeometry x="231.36" y="860" width="225" height="40" as="geometry" />
        </mxCell>
        <mxCell id="dHyz3pEAr5WjAmG0HOrd-31" style="edgeStyle=orthogonalEdgeStyle;rounded=0;orthogonalLoop=1;jettySize=auto;html=1;shadow=0;strokeWidth=1;align=center;verticalAlign=middle;fontFamily=Helvetica;fontSize=11;fontColor=default;labelBackgroundColor=none;endArrow=block;endFill=0;endSize=8;" edge="1" parent="WIyWlLk6GJQsqaUBKTNV-1" source="dHyz3pEAr5WjAmG0HOrd-28" target="dHyz3pEAr5WjAmG0HOrd-30">
          <mxGeometry relative="1" as="geometry" />
        </mxCell>
        <mxCell id="dHyz3pEAr5WjAmG0HOrd-28" value="Пользователь получает заказ" style="rounded=1;whiteSpace=wrap;html=1;fontSize=12;glass=0;strokeWidth=1;shadow=0;labelBackgroundColor=none;" vertex="1" parent="WIyWlLk6GJQsqaUBKTNV-1">
          <mxGeometry x="231.36" y="940" width="225" height="40" as="geometry" />
        </mxCell>
        <mxCell id="dHyz3pEAr5WjAmG0HOrd-32" style="edgeStyle=orthogonalEdgeStyle;rounded=0;orthogonalLoop=1;jettySize=auto;html=1;entryX=0;entryY=0.5;entryDx=0;entryDy=0;shadow=0;strokeWidth=1;align=center;verticalAlign=middle;fontFamily=Helvetica;fontSize=11;fontColor=default;labelBackgroundColor=none;endArrow=block;endFill=0;endSize=8;" edge="1" parent="WIyWlLk6GJQsqaUBKTNV-1" source="dHyz3pEAr5WjAmG0HOrd-30" target="dHyz3pEAr5WjAmG0HOrd-6">
          <mxGeometry relative="1" as="geometry">
            <Array as="points">
              <mxPoint x="193.86" y="1030" />
              <mxPoint x="193.86" y="460" />
            </Array>
          </mxGeometry>
        </mxCell>
        <mxCell id="dHyz3pEAr5WjAmG0HOrd-30" value="Пользователь ставит оценку" style="rounded=1;whiteSpace=wrap;html=1;fontSize=12;glass=0;strokeWidth=1;shadow=0;labelBackgroundColor=none;" vertex="1" parent="WIyWlLk6GJQsqaUBKTNV-1">
          <mxGeometry x="231.36" y="1010" width="225" height="40" as="geometry" />
        </mxCell>
      </root>
    </mxGraphModel>
  </diagram>
</mxfile>
